# xmcd
#
# Track frame offsets: 
#        150
#        14563
#        31639
#        48369
#        62666
#        77551
#        90307
#        109629
#        123406
#        144733
#        164226
#
# Disc length: 2368 seconds
#
# Revision: 0
# Processed by: cddbd v1.5.2PL0 Copyright (c) Steve Scherf et al.
# Submitted via: ExactAudioCopy v1.0b3
#
DISCID=89093e0b
DTITLE=A Cor do Som - Magia Tropical
DYEAR=1982
DGENRE=Latin-Br-Frevo
TTITLE0=Magia Tropical
TTITLE1=Menino Deus
TTITLE2=Goma de Mascar
TTITLE3=Ping-Pong
TTITLE4=Flor de Alecrim
TTITLE5=Sargento Pimenta E A Banda Solidão
TTITLE6=A Semente Mágica
TTITLE7=Razão
TTITLE8=Outras Praias
TTITLE9=O Balão Vai Subir
TTITLE10=Eternos Meninos
EXTD=
EXTT0=
EXTT1=
EXTT2=
EXTT3=
EXTT4=
EXTT5=
EXTT6=
EXTT7=
EXTT8=
EXTT9=
EXTT10=
PLAYORDER=
